<svg width="178" height="25" viewBox="0 0 178 25" fill="none" xmlns="http://www.w3.org/2000/svg">
<path fill-rule="evenodd" clip-rule="evenodd" d="M175.306 8.42306C175.061 8.09789 174.741 7.8357 174.374 7.65806C174.01 7.48208 173.609 7.39634 173.204 7.40806C172.891 7.40806 172.583 7.48406 172.306 7.63106C172.165 7.69884 172.048 7.80845 171.97 7.94506C171.892 8.08296 171.857 8.24104 171.869 8.39906C171.866 8.54137 171.907 8.68121 171.988 8.79852C172.069 8.91582 172.184 9.00458 172.318 9.05206C172.685 9.21406 173.067 9.33905 173.458 9.42605L174.934 9.77006C175.453 9.89898 175.951 10.1024 176.411 10.3741C176.869 10.6341 177.26 11.0041 177.551 11.4501C177.871 11.999 178.025 12.6286 177.994 13.2631C178.022 13.9382 177.849 14.6065 177.498 15.1841C177.171 15.6811 176.736 16.0941 176.228 16.3921C175.678 16.7091 175.078 16.9261 174.456 17.0321C173.826 17.1568 173.185 17.2198 172.542 17.2201C171.699 17.2161 170.861 17.0963 170.05 16.8641C169.237 16.6402 168.5 16.1995 167.918 15.5891L170.121 13.0811C170.424 13.4838 170.808 13.8179 171.249 14.0611C171.694 14.2931 172.189 14.4101 172.69 14.3991C173.076 14.4051 173.46 14.3421 173.824 14.2111C173.974 14.1746 174.106 14.0869 174.197 13.9631C174.29 13.8376 174.338 13.6842 174.332 13.5281C174.335 13.379 174.295 13.2323 174.215 13.1061C174.137 12.9811 174.024 12.8823 173.889 12.8221C173.527 12.645 173.144 12.513 172.749 12.4291L171.272 12.0791C170.758 11.9605 170.261 11.7731 169.796 11.5221C169.281 11.256 168.856 10.8424 168.576 10.3341C168.293 9.82114 168.164 9.23666 168.207 8.65206C168.194 8.02188 168.34 7.39856 168.632 6.84006C168.905 6.34083 169.287 5.90921 169.748 5.57706C170.226 5.23633 170.763 4.98836 171.331 4.84606C171.925 4.68939 172.537 4.61007 173.151 4.61006C173.95 4.61006 174.746 4.72906 175.513 4.96006C176.284 5.1689 176.981 5.58783 177.527 6.17006L175.306 8.42306ZM159.324 4.87606H162.956V6.81006H163.009C163.327 6.14919 163.799 5.57486 164.386 5.13606C164.985 4.74887 165.688 4.55479 166.4 4.58006H167.026C167.225 4.59706 167.423 4.63106 167.616 4.68306V8.07306C167.365 7.99306 167.109 7.93222 166.848 7.89106C166.589 7.84671 166.327 7.82463 166.063 7.82506C165.498 7.80142 164.935 7.90461 164.415 8.12706C164.03 8.30624 163.706 8.59403 163.482 8.95506C163.257 9.34506 163.114 9.77906 163.063 10.2291C162.994 10.7721 162.96 11.3191 162.962 11.8671V16.9181H159.33L159.324 4.87606ZM154.008 9.53506C154.024 9.24017 153.979 8.94523 153.877 8.66806C153.777 8.39234 153.62 8.14041 153.417 7.92806C153.21 7.70775 152.957 7.53403 152.677 7.41836C152.398 7.3027 152.096 7.24772 151.793 7.25706C151.107 7.24257 150.442 7.49618 149.939 7.96406C149.726 8.16941 149.554 8.41339 149.431 8.68305C149.311 8.95188 149.243 9.24094 149.23 9.53506H154.008ZM157.085 14.8401C156.504 15.5958 155.748 16.199 154.882 16.5981C154.019 16.9994 153.077 17.2056 152.124 17.2021C151.252 17.2104 150.385 17.0589 149.566 16.7551C148.793 16.4751 148.084 16.0414 147.482 15.4801C146.887 14.9182 146.415 14.2393 146.094 13.4861C145.758 12.6601 145.586 11.7768 145.586 10.8851C145.586 9.99206 145.758 9.10806 146.094 8.28406C146.417 7.53206 146.889 6.85361 147.482 6.29006C148.086 5.73085 148.794 5.29741 149.566 5.01506C150.385 4.71404 151.252 4.56264 152.124 4.56806C152.909 4.55823 153.687 4.7104 154.41 5.01506C155.088 5.29506 155.695 5.73106 156.182 6.29006C156.677 6.87646 157.052 7.55382 157.286 8.28406C157.551 9.12506 157.68 10.0041 157.67 10.8881V12.0841H149.242C149.353 12.7441 149.685 13.3441 150.181 13.7821C150.681 14.1951 151.31 14.4091 151.953 14.3861C152.487 14.4025 153.013 14.2598 153.465 13.9761C153.889 13.6991 154.26 13.3451 154.557 12.9301L157.085 14.8401ZM125.409 4.87606H128.9V6.51306H128.947C129.075 6.25906 129.238 6.02506 129.432 5.81906C129.653 5.58387 129.906 5.38028 130.182 5.21406C130.845 4.80557 131.608 4.59015 132.385 4.59206C133.148 4.57877 133.901 4.7576 134.576 5.11206C135.225 5.47406 135.733 6.05206 136.017 6.74906C136.358 6.05606 136.887 5.47906 137.541 5.08806C138.222 4.74019 138.98 4.5696 139.744 4.59206C140.433 4.57206 141.118 4.71206 141.746 5.00306C142.261 5.25306 142.703 5.63606 143.028 6.11506C143.354 6.62006 143.585 7.18406 143.707 7.77606C143.848 8.44706 143.917 9.13206 143.914 9.81906V16.9191H140.282V9.90906C140.296 9.40266 140.173 8.9019 139.927 8.45906C139.795 8.25253 139.608 8.08647 139.387 7.97906C139.168 7.87258 138.924 7.82963 138.681 7.85506C138.32 7.84341 137.96 7.91562 137.63 8.06606C137.355 8.20554 137.121 8.41399 136.95 8.67105C136.774 8.93105 136.65 9.22506 136.584 9.53506C136.512 9.87606 136.477 10.2251 136.478 10.5741V16.9181H132.846V9.75806C132.829 9.45565 132.772 9.15694 132.674 8.87006C132.584 8.59213 132.421 8.34348 132.202 8.15006C131.933 7.93278 131.591 7.82528 131.245 7.84906C130.849 7.8345 130.456 7.92415 130.105 8.10906C129.825 8.27493 129.596 8.51511 129.443 8.80306C129.286 9.10982 129.182 9.44127 129.136 9.78306C129.088 10.1611 129.064 10.5431 129.065 10.9241V16.9181H125.433L125.409 4.87606ZM104.873 4.87606H108.364V6.51306H108.411C108.538 6.25906 108.701 6.02506 108.895 5.81906C109.117 5.58306 109.37 5.37906 109.645 5.21406C109.956 5.02259 110.289 4.87233 110.638 4.76706C111.031 4.64822 111.439 4.58922 111.848 4.59206C112.611 4.57804 113.365 4.7569 114.04 5.11206C114.688 5.47406 115.196 6.05206 115.481 6.74906C115.818 6.05977 116.348 5.48284 117.005 5.08806C117.689 4.74014 118.448 4.56958 119.214 4.59206C119.903 4.57208 120.586 4.71281 121.21 5.00306C121.725 5.25306 122.167 5.63606 122.492 6.11506C122.821 6.62123 123.051 7.1847 123.171 7.77606C123.311 8.44706 123.381 9.13206 123.378 9.81906V16.9191H119.745V9.90906C119.759 9.40275 119.637 8.90198 119.391 8.45906C119.259 8.25192 119.072 8.08544 118.851 7.97806C118.632 7.87151 118.388 7.82888 118.145 7.85506C117.783 7.84408 117.423 7.91626 117.093 8.06606C116.819 8.20587 116.585 8.41427 116.414 8.67105C116.238 8.93105 116.113 9.22506 116.048 9.53506C115.976 9.87606 115.94 10.2251 115.942 10.5741V16.9181H112.309V9.75806C112.296 9.45527 112.239 9.15607 112.138 8.87006C112.048 8.59226 111.884 8.34371 111.665 8.15006C111.396 7.93257 111.055 7.82504 110.709 7.84906C110.315 7.83357 109.924 7.9233 109.575 8.10906C109.292 8.27257 109.06 8.51321 108.907 8.80306C108.749 9.10806 108.647 9.44006 108.606 9.78306C108.553 10.161 108.528 10.5424 108.529 10.9241V16.9181H104.885L104.873 4.87606ZM98.8965 11.6431C98.6185 11.6431 98.3065 11.6431 97.8625 11.6801C97.4625 11.7041 97.0665 11.7751 96.6815 11.8911C96.3265 11.9941 95.9965 12.1711 95.7125 12.4111C95.5797 12.5335 95.4755 12.6835 95.4071 12.8506C95.3386 13.0177 95.3077 13.1977 95.3165 13.3781C95.3085 13.5791 95.3565 13.7801 95.4545 13.9551C95.5525 14.1301 95.6975 14.2741 95.8725 14.3681C96.2325 14.5791 96.6395 14.6901 97.0535 14.6881C97.4017 14.6899 97.7483 14.6394 98.0815 14.5381C98.3965 14.4481 98.6955 14.3081 98.9675 14.1201C99.2289 13.9249 99.4399 13.6701 99.5827 13.3768C99.7256 13.0834 99.7961 12.7602 99.7885 12.4341V11.6441L98.8965 11.6431ZM99.7885 15.4081H99.7405C99.364 16.0289 98.7993 16.5134 98.1285 16.7911C96.9533 17.2814 95.6442 17.3479 94.4255 16.9791C93.9368 16.8327 93.4813 16.5926 93.0845 16.2721C92.6949 15.9586 92.3799 15.5623 92.1625 15.1121C91.9247 14.6079 91.8076 14.0553 91.8205 13.4981C91.8033 12.8902 91.933 12.2871 92.1985 11.7401C92.4405 11.2621 92.7885 10.8481 93.2145 10.5311C93.6601 10.21 94.1548 9.9635 94.6795 9.80105C95.2369 9.62671 95.8079 9.49927 96.3865 9.42006C96.9739 9.3368 97.5654 9.28639 98.1585 9.26906H99.7945C99.8064 8.97028 99.7499 8.67272 99.6295 8.39906C99.5095 8.12706 99.3295 7.88706 99.1035 7.69806C98.6515 7.30547 98.0721 7.09077 97.4735 7.09406C96.9046 7.08851 96.3429 7.22096 95.8365 7.48006C95.3355 7.74206 94.8865 8.10006 94.5135 8.53206L92.5765 6.50206C93.2526 5.85687 94.058 5.36264 94.9395 5.05206C95.8419 4.73104 96.7927 4.56733 97.7505 4.56806C98.6443 4.54058 99.5355 4.67962 100.378 4.97806C101.027 5.22239 101.595 5.64114 102.02 6.18806C102.455 6.75606 102.75 7.42306 102.883 8.13306C103.053 9.00806 103.134 9.89906 103.125 10.7911V16.9181H99.7825L99.7885 15.4081ZM83.0905 4.87606H86.7235V6.81006H86.7705C87.0913 6.15 87.5651 5.5761 88.1525 5.13606C88.7525 4.74906 89.4525 4.55606 90.1605 4.58006H90.7925C90.9925 4.59606 91.1895 4.63006 91.3825 4.68306V8.07306C91.134 7.99252 90.8795 7.93167 90.6215 7.89106C90.3618 7.84708 90.0989 7.825 89.8355 7.82506C89.2707 7.80033 88.7077 7.90357 88.1885 8.12706C87.803 8.30598 87.4783 8.59381 87.2545 8.95506C87.0238 9.3442 86.8808 9.77897 86.8355 10.2291C86.7665 10.7721 86.7325 11.3191 86.7355 11.8671V16.9181H83.0905V4.87606ZM71.5615 10.8221C71.5599 11.2065 71.6333 11.5876 71.7775 11.9441C71.9215 12.3001 72.1335 12.6231 72.4005 12.8941C72.6665 13.1661 72.9785 13.3871 73.3215 13.5461C73.6815 13.7161 74.0715 13.8011 74.4675 13.7941C74.8614 13.7988 75.2512 13.714 75.6075 13.5461C75.9545 13.3891 76.2715 13.1681 76.5405 12.8941C76.8075 12.6231 77.0185 12.3001 77.1635 11.9451C77.3801 11.4102 77.4365 10.8239 77.3259 10.2575C77.2153 9.69112 76.9424 9.16912 76.5405 8.75506C76.2708 8.48234 75.9549 8.25956 75.6075 8.09706C75.2502 7.93193 74.861 7.84727 74.4675 7.84906C74.0718 7.84545 73.6803 7.93018 73.3215 8.09706C72.9786 8.26124 72.6669 8.4839 72.4005 8.75506C72.1335 9.02506 71.9225 9.34805 71.7785 9.70205C71.6341 10.0578 71.5604 10.4382 71.5615 10.8221ZM80.7165 15.9031C80.7165 18.1831 80.1555 19.9131 79.0335 21.0931C77.9105 22.2731 76.2035 22.8631 73.9125 22.8631C72.8685 22.8631 71.8285 22.7431 70.8115 22.5071C69.7817 22.2592 68.822 21.7797 68.0055 21.1051L70.0145 18.0301C70.5478 18.4931 71.1445 18.8777 71.7865 19.1721C72.4313 19.4594 73.1306 19.6037 73.8365 19.5951C74.2785 19.6331 74.7255 19.5791 75.1475 19.4351C75.5713 19.2912 75.961 19.0618 76.2925 18.7611C76.5562 18.479 76.7612 18.1472 76.8955 17.7851C77.0305 17.4221 77.0925 17.0351 77.0785 16.6461V15.4801H77.0305C76.642 16.0285 76.0994 16.4493 75.4715 16.6891C74.9084 16.9187 74.3075 17.0415 73.6995 17.0511C72.8891 17.0591 72.0856 16.9026 71.3375 16.5911C70.6428 16.2972 70.0186 15.8588 69.5065 15.3051C68.9875 14.7321 68.5862 14.0628 68.3255 13.3351C68.0446 12.5314 67.9046 11.6853 67.9115 10.8341C67.9135 10.0401 68.0415 9.25306 68.2895 8.50106C68.5228 7.77496 68.8827 7.09584 69.3525 6.49506C69.8115 5.91767 70.3844 5.44081 71.0355 5.09406C71.7324 4.73338 72.5078 4.55062 73.2925 4.56206C74.1852 4.55319 75.0661 4.76697 75.8555 5.18406C76.1715 5.34706 76.4655 5.55006 76.7295 5.78806C76.9525 5.98206 77.1505 6.20306 77.3195 6.44706H77.3675V4.85706H80.7275L80.7165 15.9031ZM57.3265 10.8761C57.291 11.6814 57.5639 12.4699 58.0895 13.0811C58.6765 13.6221 59.4395 13.9211 60.2295 13.9211C61.0205 13.9211 61.7835 13.6221 62.3715 13.0811C62.8698 12.4542 63.1405 11.6768 63.1395 10.8761C63.1395 10.0721 62.8685 9.29305 62.3715 8.67105C61.7906 8.12816 61.0256 7.82551 60.2305 7.82406C59.4385 7.82406 58.6755 8.12605 58.0895 8.67105C57.5632 9.28175 57.2895 10.0707 57.3265 10.8761ZM53.6955 10.8761C53.6808 9.98207 53.8538 9.09496 54.2035 8.27206C54.5263 7.52025 54.9985 6.84187 55.5915 6.27806C56.195 5.71891 56.9037 5.28549 57.6765 5.00306C59.3275 4.40625 61.1354 4.40625 62.7865 5.00306C63.5565 5.28306 64.2645 5.71706 64.8705 6.27806C65.4648 6.84194 65.939 7.5202 66.2645 8.27206C66.9423 9.93981 66.9423 11.8063 66.2645 13.4741C65.9418 14.2297 65.4661 14.9103 64.8673 15.4729C64.2685 16.0355 63.5597 16.468 62.7855 16.7431C61.1347 17.3396 59.3272 17.3396 57.6765 16.7431C56.9026 16.463 56.1934 16.0293 55.5915 15.4681C54.9963 14.9061 54.5238 14.2273 54.2035 13.4741C53.8538 12.6533 53.6807 11.7681 53.6955 10.8761ZM45.2435 4.83406H48.8765V6.76706H48.9235C49.2435 6.10206 49.7175 5.52706 50.3055 5.09406C50.9045 4.70406 51.6055 4.51006 52.3135 4.53806H52.9395C53.1395 4.55406 53.3375 4.58806 53.5305 4.64006V8.03006C53.0279 7.87099 52.5046 7.78742 51.9775 7.78206C51.4144 7.75771 50.8531 7.86095 50.3355 8.08406C49.9505 8.26006 49.6255 8.54806 49.4015 8.91206C49.1715 9.30106 49.0275 9.73606 48.9765 10.1871C48.9095 10.7301 48.8785 11.2771 48.8825 11.8251V16.9181H45.2495L45.2435 4.83406ZM34.1995 10.8761C34.1635 11.6811 34.4356 12.4696 34.9605 13.0811C35.5505 13.6231 36.3135 13.9221 37.1045 13.9221C37.8965 13.9221 38.6605 13.6221 39.2485 13.0821C39.7431 12.4532 40.0116 11.6761 40.0105 10.8761C40.0113 10.0763 39.7429 9.2996 39.2485 8.67105C38.6661 8.12876 37.9003 7.82657 37.1045 7.82506C36.3125 7.82506 35.5485 8.12705 34.9605 8.67105C34.4341 9.2817 34.1624 10.0707 34.1995 10.8761ZM30.8555 4.83406H34.1975V6.42306H34.2455C34.4175 6.18206 34.6155 5.96106 34.8355 5.76406C35.0855 5.53006 35.3605 5.32706 35.6565 5.16006C35.9825 4.97206 36.3265 4.82206 36.6845 4.71306C37.0672 4.59607 37.4653 4.53709 37.8655 4.53806C38.6763 4.5269 39.4808 4.68315 40.2285 4.99706C40.9185 5.29106 41.5385 5.73006 42.0535 6.28406C42.5778 6.85302 42.9797 7.52351 43.2345 8.25406C43.5185 9.05506 43.6585 9.90306 43.6485 10.7551C43.6532 11.5758 43.5256 12.3919 43.2705 13.1721C43.0381 13.9098 42.678 14.6009 42.2065 15.2141C41.7535 15.8039 41.1797 16.2901 40.5235 16.6401C39.8304 17.0044 39.0563 17.1875 38.2735 17.1721C37.5514 17.1773 36.834 17.0565 36.1535 16.8151C35.507 16.5829 34.9451 16.1621 34.5405 15.6071H34.4935V22.5431H30.8605L30.8555 4.83406Z" fill="#1E2A3C"/>
<path d="M20.672 0H2.953C1.323 0 0 1.353 0 3.021V21.148C0 22.816 1.322 24.168 2.953 24.168H20.673C22.303 24.168 23.625 22.816 23.625 21.148V3.02C23.625 1.353 22.303 0 20.672 0Z" fill="#1E2A3C"/>
<path fill-rule="evenodd" clip-rule="evenodd" d="M14.577 8.65805C14.074 8.72505 12.102 7.45005 8.333 5.40105C5.05 3.58905 5.941 6.16305 6.237 6.86405C6.267 6.96605 6.267 7.07505 6.237 7.17805C6.113 7.67905 6.036 9.59505 9.863 13.7521C9.94173 13.8119 9.99552 13.8987 10.014 13.9959C10.0324 14.093 10.0143 14.1935 9.963 14.2781L9.916 14.3441C9.426 15.2081 14.967 8.33805 14.577 8.65805Z" fill="#8699B7"/>
<path fill-rule="evenodd" clip-rule="evenodd" d="M14.5769 8.65897C14.0919 8.54997 13.9449 8.44097 12.2139 4.42897C10.9439 1.40897 9.71585 4.27197 9.74485 5.03397C9.75068 5.13896 9.72187 5.24295 9.66285 5.32997C9.37285 5.75897 7.89085 8.11497 10.0049 13.408C10.0929 13.697 10.0759 14.008 9.95785 14.284L9.91085 14.351C9.42585 15.209 14.9659 8.33897 14.5769 8.65897Z" fill="#54718A"/>
<path fill-rule="evenodd" clip-rule="evenodd" d="M14.5768 8.65801C14.1218 8.71801 12.4568 7.69101 9.34875 5.96301C8.89475 7.02001 8.39875 9.34601 10.0338 13.401C10.1248 13.687 10.1078 13.997 9.98675 14.271L9.94575 14.343C9.41375 15.201 14.9608 8.33701 14.5768 8.65801Z" fill="#9FBED1"/>
<path fill-rule="evenodd" clip-rule="evenodd" d="M18.8952 8.05503C18.3572 8.00603 17.9262 7.08203 16.9932 7.08203C16.0602 7.08203 14.9672 8.33903 14.5832 8.65903C13.9932 9.01603 11.0392 9.03903 6.62116 9.35903C2.71716 9.63803 4.17616 10.713 4.62516 10.991C4.65526 11.005 4.67981 11.0286 4.69486 11.0582C4.70991 11.0877 4.71459 11.1215 4.70816 11.154C4.67216 11.481 5.19216 12.924 9.78116 13.886C10.2122 13.976 9.94716 14.345 9.94716 14.345C9.42716 15.209 7.67916 18.218 7.12316 20.876C7.00516 21.414 7.52516 20.079 9.66916 18.218C11.8132 16.357 13.9572 16.683 15.8652 14.133C17.7732 11.583 16.8392 9.81303 18.8952 9.26303L23.6202 8.05503C23.6202 8.05503 18.9482 8.06103 18.8952 8.05503Z" fill="#FAFAFA"/>
</svg>
